<mxfile host="app.diagrams.net" modified="2023-01-10T06:07:06.449Z" agent="5.0 (Windows NT 10.0; Win64; x64) AppleWebKit/537.36 (KHTML, like Gecko) Chrome/108.0.0.0 Safari/537.36 Edg/108.0.1462.76" version="20.8.3" etag="aR0puXCi9DQHIJfTwP3T" type="github">
  <diagram id="aq5uX9AMc2Kc4nTeTvGf" name="第 1 页">
    <mxGraphModel dx="745" dy="485" grid="1" gridSize="10" guides="1" tooltips="1" connect="1" arrows="1" fold="1" page="1" pageScale="1" pageWidth="827" pageHeight="1169" math="0" shadow="0">
      <root>
        <mxCell id="0" />
        <mxCell id="1" parent="0" />
        <mxCell id="S2VMe7GUZuOgcUYiu_Mf-1" value="选题意义和研究目的" style="rounded=0;whiteSpace=wrap;html=1;" vertex="1" parent="1">
          <mxGeometry x="250" y="20" width="120" height="60" as="geometry" />
        </mxCell>
        <mxCell id="S2VMe7GUZuOgcUYiu_Mf-2" value="基础理论" style="rounded=0;whiteSpace=wrap;html=1;" vertex="1" parent="1">
          <mxGeometry x="260" y="170" width="100" height="30" as="geometry" />
        </mxCell>
        <mxCell id="S2VMe7GUZuOgcUYiu_Mf-3" value="基于强化学习的信号控制方法现状分析" style="rounded=0;whiteSpace=wrap;html=1;" vertex="1" parent="1">
          <mxGeometry x="230" y="350" width="140" height="40" as="geometry" />
        </mxCell>
        <mxCell id="S2VMe7GUZuOgcUYiu_Mf-4" value="强化学习理论" style="rounded=0;whiteSpace=wrap;html=1;" vertex="1" parent="1">
          <mxGeometry x="400" y="120" width="90" height="30" as="geometry" />
        </mxCell>
        <mxCell id="S2VMe7GUZuOgcUYiu_Mf-5" value="信号控制理论" style="rounded=0;whiteSpace=wrap;html=1;" vertex="1" parent="1">
          <mxGeometry x="400" y="170" width="90" height="30" as="geometry" />
        </mxCell>
        <mxCell id="S2VMe7GUZuOgcUYiu_Mf-6" value="" style="endArrow=classic;html=1;rounded=0;entryX=0;entryY=0.5;entryDx=0;entryDy=0;exitX=1;exitY=0.25;exitDx=0;exitDy=0;" edge="1" parent="1" source="S2VMe7GUZuOgcUYiu_Mf-2" target="S2VMe7GUZuOgcUYiu_Mf-4">
          <mxGeometry width="50" height="50" relative="1" as="geometry">
            <mxPoint x="360" y="150" as="sourcePoint" />
            <mxPoint x="350" y="140" as="targetPoint" />
            <Array as="points" />
          </mxGeometry>
        </mxCell>
        <mxCell id="S2VMe7GUZuOgcUYiu_Mf-7" value="" style="endArrow=classic;html=1;rounded=0;entryX=0;entryY=0.5;entryDx=0;entryDy=0;exitX=1;exitY=0.75;exitDx=0;exitDy=0;" edge="1" parent="1" source="S2VMe7GUZuOgcUYiu_Mf-2" target="S2VMe7GUZuOgcUYiu_Mf-5">
          <mxGeometry width="50" height="50" relative="1" as="geometry">
            <mxPoint x="370" y="160" as="sourcePoint" />
            <mxPoint x="410" y="145" as="targetPoint" />
            <Array as="points" />
          </mxGeometry>
        </mxCell>
        <mxCell id="S2VMe7GUZuOgcUYiu_Mf-8" value="基于强化学习的信号控制方法研究现状" style="rounded=0;whiteSpace=wrap;html=1;" vertex="1" parent="1">
          <mxGeometry x="395" y="330" width="100" height="40" as="geometry" />
        </mxCell>
        <mxCell id="S2VMe7GUZuOgcUYiu_Mf-9" value="自适应信号控制方法研究现状" style="rounded=0;whiteSpace=wrap;html=1;" vertex="1" parent="1">
          <mxGeometry x="390" y="410" width="100" height="40" as="geometry" />
        </mxCell>
        <mxCell id="S2VMe7GUZuOgcUYiu_Mf-10" value="切换模型" style="rounded=0;whiteSpace=wrap;html=1;" vertex="1" parent="1">
          <mxGeometry x="230" y="510" width="140" height="40" as="geometry" />
        </mxCell>
        <mxCell id="S2VMe7GUZuOgcUYiu_Mf-11" value="结论" style="rounded=0;whiteSpace=wrap;html=1;" vertex="1" parent="1">
          <mxGeometry x="230" y="690" width="140" height="40" as="geometry" />
        </mxCell>
      </root>
    </mxGraphModel>
  </diagram>
</mxfile>
